<svg enable-background="new 0 0 64 64" viewBox="0 0 64 64" xmlns="http://www.w3.org/2000/svg"><path d="m53.061 42.361-12.061-5.361h-18l-12.061 5.361c-3.612 1.605-5.939 5.186-5.939 9.138v12.501h54v-12.501c0-3.952-2.327-7.533-5.939-9.138z" fill="#ff8354"/><path d="m5 62h54v2h-54z" fill="#e0734a"/><path d="m25 31h14v20h-14z" fill="#edd4c2"/><path d="m37 0h-10c-3.866 0-7 3.134-7 7v17c0 3.866 3.134 7 7 7h10c3.866 0 7-3.134 7-7v-17c0-3.866-3.134-7-7-7z" fill="#ffefe4"/><path d="m18 22h2v-9h-2c-1.657 0-3 1.343-3 3v3c0 1.657 1.343 3 3 3z" fill="#edd4c2"/><path d="m46 22h-2v-9h2c1.657 0 3 1.343 3 3v3c0 1.657-1.343 3-3 3z" fill="#edd4c2"/><path d="m37 0h-10c-3.866 0-7 3.134-7 7v6h24v-6c0-3.866-3.134-7-7-7z" fill="#ff8354"/><path d="m37 0h-10c-3.866 0-7 3.134-7 7v2c0-3.866 3.134-7 7-7h10c3.866 0 7 3.134 7 7v-2c0-3.866-3.134-7-7-7z" fill="#ffa171"/><path d="m32 0c-3.866 0-7 3.134-7 7v6h14v-6c0-3.866-3.134-7-7-7z" fill="#ffa171"/><path d="m36.894 2c-1.262-1.236-2.988-2-4.894-2s-3.632.764-4.894 2z" fill="#ffbf8f"/><path d="m38 19h-12c-3.314 0-6-2.686-6-6h24c0 3.314-2.686 6-6 6z" fill="#e0734a"/><path d="m20 51h12l-7-15-2 1z" fill="#ffa171"/><path d="m44 51h-12l7-15 2 1z" fill="#ffa171"/><path d="m62.235 64h-26.47c-.975 0-1.765-.79-1.765-1.765v-26.47c0-.975.79-1.765 1.765-1.765h26.471c.974 0 1.764.79 1.764 1.765v26.471c0 .974-.79 1.764-1.765 1.764z" fill="#d476e2"/><path d="m62.235 62h-26.47c-.975 0-1.765-.79-1.765-1.765v2c0 .975.79 1.765 1.765 1.765h26.471c.974 0 1.764-.79 1.764-1.765v-2c0 .975-.79 1.765-1.765 1.765z" fill="#b665c2"/><path d="m62.235 34h-26.47c-.975 0-1.765.79-1.765 1.765v2c0-.975.79-1.765 1.765-1.765h26.471c.974 0 1.764.79 1.764 1.765v-2c0-.975-.79-1.765-1.765-1.765z" fill="#ea82fa"/><path d="m46.353 34h5.294v10.588h-5.294z" fill="#5861c7"/><path d="m46.353 34h5.294v2h-5.294z" fill="#6770e6"/><path d="m37.529 55.176h12.353v5.294h-12.353z" fill="#ffefe4"/><path d="m39.294 56.941h8.824v1.765h-8.824z" fill="#edd4c2"/><path d="m30 51h4v13h-4z" fill="#ffa171"/><path d="m30 62h4v2h-4z" fill="#ff8354"/></svg>