<svg xmlns="http://www.w3.org/2000/svg" width="512" height="512"><path fill="#83d8f4" d="M392 408v64a24.006 24.006 0 0 1-24 24H144a24.006 24.006 0 0 1-24-24V368"/><path fill="#83d8f4" d="M120 400V40a24.006 24.006 0 0 1 24-24h224a24.006 24.006 0 0 1 24 24v424"/><path fill="#a0815c" d="M360 360h80v80h-80z"/><path fill="#ffda44" d="M384 360h32v40h-32z"/><path fill="#a0815c" d="M384 280h80v80h-80z"/><path fill="#ffda44" d="M400 280h32v40h-32zM63 400h273v-72a24.006 24.006 0 0 0-24-24h-96l-16 56h-56V248h-32L77.34 353.19"/><path fill="#cca400" d="M328 400h-96a48 48 0 0 1 96 0Z"/><path fill="#57565c" d="M310.99 400a32 32 0 1 1-61.98 0"/><path fill="#cca400" d="M136 400H40a48 48 0 0 1 96 0Z"/><path fill="#57565c" d="M118.99 400a32 32 0 1 1-61.98 0M216 272h104v32H216a16 16 0 0 1-16-16 16 16 0 0 1 16-16z"/><path fill="#e0e0e2" d="M104 216v32h-8a16 16 0 1 1 0-32Z"/><path fill="#cca400" d="M104 216h56v32h-56z"/><path fill="#a0815c" d="M256 192h80v80h-80z"/><path fill="#ffda44" d="M280 192h32v40h-32z"/><path fill="#57565c" d="M303 48h-95l-8-32h112l-9 32z"/><path d="M216 456h-64a8 8 0 0 0 0 16h64a8 8 0 0 0 0-16zm32 0h-8a8 8 0 0 0 0 16h8a8 8 0 0 0 0-16z"/><path d="M480 432h-32v-64h16a8 8 0 0 0 8-8v-80a8 8 0 0 0-8-8h-64V40a32.042 32.042 0 0 0-32-32H144a32.042 32.042 0 0 0-32 32v168H96a24 24 0 0 0 0 48h4.94l-29.86 90.62A56.1 56.1 0 0 0 32 400a8 8 0 0 0 8 8h8a39.808 39.808 0 0 0 8.02 24H32a8 8 0 0 0 0 16h80v24a32.042 32.042 0 0 0 32 32h224a32.042 32.042 0 0 0 32-32v-24h80a8 8 0 0 0 0-16ZM96 240a8 8 0 0 1 0-16Zm312 48h16v24h-16Zm-16 80h16v24h-16ZM301.44 24l-4.5 16h-82.69l-4-16ZM128 40a16.021 16.021 0 0 1 16-16h49.75l6.49 25.94A8 8 0 0 0 208 56h95a8 8 0 0 0 7.7-5.83L318.06 24H368a16.021 16.021 0 0 1 16 16v232a8 8 0 0 0-8 8v72h-16a8 8 0 0 0-8 8v72h-40.02a39.808 39.808 0 0 0 8.02-24h16a8 8 0 0 0 8-8v-72a32.01 32.01 0 0 0-16-27.69V280h8a8 8 0 0 0 8-8v-80a8 8 0 0 0-8-8h-80a8 8 0 0 0-8 8v72h-32a24 24 0 0 0-9.98 45.82L193.97 352H152v-96h8a8 8 0 0 0 8-8v-8h16a8 8 0 0 0 0-16h-16v-8a8 8 0 0 0-8-8h-32Zm112.8 352a40.01 40.01 0 0 1 78.4 0Zm63.2 16a24 24 0 0 1-48 0Zm-55.98 24H128v-24h112a39.808 39.808 0 0 0 8.02 24ZM264 264v-64h8v32a8 8 0 0 0 8 8h32a8 8 0 0 0 8-8v-32h8v64Zm48 16v16h-96a8 8 0 0 1 0-16Zm-24-56v-24h16v24Zm-176 0h40v16h-40Zm5.79 32H136v104a8 8 0 0 0 8 8h56a8 8 0 0 0 7.69-5.8l14.34-50.2H312a16.021 16.021 0 0 1 16 16v43.19A55.982 55.982 0 0 0 224.58 392h-81.16a56.079 56.079 0 0 0-54.63-47.98ZM88 432a24.032 24.032 0 0 1-24-24h48a24.032 24.032 0 0 1-24 24Zm-39.2-40a40.01 40.01 0 0 1 78.4 0ZM384 472a16.021 16.021 0 0 1-16 16H144a16.021 16.021 0 0 1-16-16v-24h256Zm48-40h-64v-64h8v32a8 8 0 0 0 8 8h32a8 8 0 0 0 8-8v-32h8Zm-40-80v-32a8 8 0 0 0 8 8h32a8 8 0 0 0 8-8v-32h16v64Z"/><circle cx="296" cy="168" r="8"/><path d="M317.336 144.15a32 32 0 0 0-42.672 0 8 8 0 1 0 10.672 11.922 16 16 0 0 1 21.328 0 8 8 0 0 0 10.672-11.922Z"/><path d="M269.335 138.184a40 40 0 0 1 53.33 0 8 8 0 1 0 10.67-11.922 56 56 0 0 0-74.67 0 8 8 0 0 0 10.67 11.922Z"/></svg>