<svg height="48" width="48" xmlns="http://www.w3.org/2000/svg" xmlns:xlink="http://www.w3.org/1999/xlink"><linearGradient id="a"><stop offset="0"/><stop offset="1" stop-opacity="0"/></linearGradient><linearGradient id="b"><stop offset="0" stop-color="#fff"/><stop offset="1" stop-color="#c9c9c9"/></linearGradient><radialGradient id="c" cx="31.112698" cy="19.008621" gradientUnits="userSpaceOnUse" r="8.662058" xlink:href="#a"/><linearGradient id="d" gradientUnits="userSpaceOnUse" x1="30.935921" x2="30.935921" xlink:href="#b" y1="29.553486" y2="35.803486"/><radialGradient id="e" cx="28.089741" cy="27.203083" gradientTransform="matrix(1.297564 0 0 .884831 -8.358505 4.940469)" gradientUnits="userSpaceOnUse" r="13.56536"><stop offset="0" stop-color="#3b74bc"/><stop offset="1" stop-color="#2d5990"/></radialGradient><radialGradient id="f" cx="29.34494493814" cy="17.06408554785" gradientUnits="userSpaceOnUse" r="7.21968337988"><stop offset="0" stop-color="#f4d9b1"/><stop offset="1" stop-color="#df9725"/></radialGradient><radialGradient id="g" cx="29.34494493814" cy="17.06408554785" gradientUnits="userSpaceOnUse" r="7.21968337988"><stop offset="0" stop-color="#e9b15e"/><stop offset="1" stop-color="#966416"/></radialGradient><linearGradient id="h" gradientTransform="matrix(.983375 .181588 -.181588 .983375 6.231716 -2.651466)" gradientUnits="userSpaceOnUse" x1="20.661695" x2="22.626925" xlink:href="#a" y1="35.817974" y2="36.217758"/><linearGradient id="i" gradientTransform="matrix(-.977685 .210075 .210075 .977685 55.1096 -3.945209)" gradientUnits="userSpaceOnUse" x1="22.686766" x2="21.408455" xlink:href="#a" y1="36.3904" y2="35.739632"/><linearGradient id="j" gradientTransform="matrix(-.977685 .210075 .210075 .977685 41.80576 -11.11866)" gradientUnits="userSpaceOnUse" x1="22.686766" x2="21.408455" xlink:href="#a" y1="36.3904" y2="35.739632"/><linearGradient id="k" gradientTransform="matrix(.983375 .181588 -.181588 .983375 -7.07212 -9.82492)" gradientUnits="userSpaceOnUse" x1="20.661695" x2="22.626925" xlink:href="#a" y1="35.817974" y2="36.217758"/><linearGradient id="l" gradientUnits="userSpaceOnUse" x1="18.518031" x2="18.518031" xlink:href="#b" y1="22.553486" y2="28.803486"/><radialGradient id="m" cx="16.214741" cy="19.836468" gradientTransform="matrix(1 0 0 .681917 0 8.233773)" gradientUnits="userSpaceOnUse" r="13.56536"><stop offset="0" stop-color="#727e0a"/><stop offset="1" stop-color="#5b6508"/></radialGradient><g><g fill-rule="evenodd"><path d="m39.774755 19.008621a8.6620579 8.6620579 0 1 1 -17.324115 0 8.6620579 8.6620579 0 1 1 17.324115 0z" fill="url(#c)" transform="matrix(1.77551 0 0 .959183 -37.37822 11.77153)"/><path d="m12.861174 34.636039h10.606602c3.005204 0 5.980484-1.101932 7.071067-4.242641 1.035639-2.982476.176777-8.662058-6.540737-13.258252h-12.551146c-6.717514 4.24264-7.556991 10.044831-6.010407 13.435028 1.575595 3.45379 4.24264 4.065865 7.424621 4.065865z" fill="url(#m)" stroke="#404604" stroke-linecap="round" stroke-linejoin="round"/><path d="m17.932367 19.786797s-2.151323 1.660335-1.965991 3.660533c-2.041226-1.800794-2.099873-5.251524-2.099873-5.251524l4.065864 1.590991z" fill="#9db029"/></g><path d="m12.966639 33.571836h10.31667c2.639723 0 5.253161-.967919 6.211112-3.726667.909689-2.61976-.094722-7.608614-5.995279-11.645837h-11.524725c-5.900557 3.726667-6.88794 8.823219-5.529446 11.801114 1.383978 3.033754 3.726667 3.57139 6.521668 3.57139z" fill="none" opacity=".21519" stroke="#fff" stroke-linecap="round" stroke-linejoin="round"/><path d="m18.910795 19.786797s2.151323 1.660335 1.965991 3.660533c2.041226-1.800794 2.099873-5.251524 2.099873-5.251524l-4.065864 1.590991z" fill="#9db029" fill-rule="evenodd"/><path d="m39.774755 19.008621a8.6620579 8.6620579 0 1 1 -17.324115 0 8.6620579 8.6620579 0 1 1 17.324115 0z" fill="url(#c)" fill-rule="evenodd" transform="translate(-13.25 -3.5)"/><path d="m39.774755 19.008621a8.6620579 8.6620579 0 1 1 -17.324115 0 8.6620579 8.6620579 0 1 1 17.324115 0z" fill="url(#g)" fill-rule="evenodd" stroke="#6f4709" stroke-linecap="round" stroke-linejoin="round" transform="translate(-13.125 -7)"/><path d="m39.774755 19.008621a8.6620579 8.6620579 0 1 1 -17.324115 0 8.6620579 8.6620579 0 1 1 17.324115 0z" style="opacity:.126582;fill:none;stroke:#fff;stroke-width:1.140128;stroke-linecap:round;stroke-linejoin:round" transform="matrix(.877095 0 0 .877095 -9.301073 -4.663733)"/><path d="m22.583894 27.034641h4.24264l-2.474873-2.298097-.53033.707107-.530331-.53033-.707106 2.12132z" fill="url(#l)" fill-rule="evenodd"/><path d="m8.5479535 33.601747c-1.247607-.544969-1.805994-1.858277-1.805994-1.858277.841281-4.069136 3.7199255-7.046216 3.7199255-7.046216s-2.2793215 6.411514-1.9139315 8.904493z" fill="url(#k)" fill-rule="evenodd" opacity=".227848"/><path d="m27.453661 32.743396c1.231251-.580978 1.80438-2.002321 1.80438-2.002321-.95912-4.042983-3.976149-6.842821-3.976149-6.842821s2.464593 6.342602 2.171769 8.845142z" fill="url(#j)" fill-rule="evenodd" opacity=".227848"/></g><g><g fill-rule="evenodd"><path d="m39.774755 19.008621a8.6620579 8.6620579 0 1 1 -17.324115 0 8.6620579 8.6620579 0 1 1 17.324115 0z" fill="url(#c)" transform="matrix(1.77551 0 0 .583984 -24.25322 28.27856)"/><path d="m25.986174 41.636039h10.606602c3.005204 0 5.980484-1.101932 7.071067-4.242641 1.035639-2.982476.176777-8.662058-6.540737-13.258252h-12.551146c-6.717514 4.24264-7.556991 10.044831-6.010407 13.435028 1.575595 3.45379 4.24264 4.065865 7.424621 4.065865z" fill="url(#e)" stroke="#204a87" stroke-linecap="round" stroke-linejoin="round"/><path d="m26.693281 25.726136c3.18198 2.828427 4.596194 13.081476 4.596194 13.081476s1.414213-10.253048 3.889087-13.258252l-8.485281.176776z" fill="url(#d)"/><path d="m28.972721 26.786797s-2.151323 1.660335-1.965991 3.660533c-2.041226-1.800794-2.099873-5.251524-2.099873-5.251524l4.065864 1.590991z" fill="#729fcf"/></g><path d="m25.914862 40.593933 10.493447-.022097c2.639723 0 5.253161-.967919 6.211112-3.726667.909689-2.61976-.094722-7.608614-5.995279-11.645837l-11.524725-.243068c-5.900557 3.726667-7.04262 8.823219-5.662029 12.044182 1.380592 3.220963 3.395211 3.57139 6.477474 3.593487z" fill="none" opacity=".21519" stroke="#fff" stroke-linecap="round" stroke-linejoin="round"/><path d="m33.410795 26.786797s2.151323 1.660335 1.965991 3.660533c2.041226-1.800794 2.099873-5.251524 2.099873-5.251524l-4.065864 1.590991z" fill="#729fcf" fill-rule="evenodd"/><path d="m39.774755 19.008621a8.6620579 8.6620579 0 1 1 -17.324115 0 8.6620579 8.6620579 0 1 1 17.324115 0z" fill="url(#c)" fill-rule="evenodd" transform="translate(-.125 3.5)"/><path d="m39.774755 19.008621a8.6620579 8.6620579 0 1 1 -17.324115 0 8.6620579 8.6620579 0 1 1 17.324115 0z" fill="url(#f)" fill-rule="evenodd" stroke="#c17d11" stroke-linecap="round" stroke-linejoin="round"/><path d="m39.774755 19.008621a8.6620579 8.6620579 0 1 1 -17.324115 0 8.6620579 8.6620579 0 1 1 17.324115 0z" style="opacity:.196203;fill:none;stroke:#fff;stroke-width:1.140128;stroke-linecap:round;stroke-linejoin:round" transform="matrix(.877095 0 0 .877095 3.823927 2.336267)"/><path d="m21.85179 40.775197c-1.247607-.544969-1.805994-1.858277-1.805994-1.858277.841281-4.069136 3.719925-7.046216 3.719925-7.046216s-2.279321 6.411514-1.913931 8.904493z" fill="url(#h)" fill-rule="evenodd" opacity=".227848"/><path d="m40.757497 39.916846c1.231251-.580978 1.80438-2.002321 1.80438-2.002321-.95912-4.042983-3.976149-6.842821-3.976149-6.842821s2.464593 6.342602 2.171769 8.845142z" fill="url(#i)" fill-rule="evenodd" opacity=".227848"/></g></svg>