<svg xmlns="http://www.w3.org/2000/svg" data-name="Layer 1" viewBox="0 0 168 168"><path fill="#2d4356" d="M85 8.75a3 3 0 1 0-3-3A3.00344 3.00344 0 0 0 85 8.75zm0-4.5a1.5 1.5 0 1 1-1.5 1.5A1.50148 1.50148 0 0 1 85 4.25zM160.30471 46.25a2 2 0 1 0 2 2A2.00229 2.00229 0 0 0 160.30471 46.25zm0 3a1 1 0 1 1 1-1A1.001 1.001 0 0 1 160.30471 49.25zM4 10.25a2 2 0 1 0 2 2A2.00229 2.00229 0 0 0 4 10.25zm0 3a1 1 0 1 1 1-1A1.001 1.001 0 0 1 4 13.25zM130 45.25a2 2 0 1 0 2 2A2.00229 2.00229 0 0 0 130 45.25zm0 3a1 1 0 1 1 1-1A1.001 1.001 0 0 1 130 48.25zM29.25 43.6277a2 2 0 1 0-2 2A2.00229 2.00229 0 0 0 29.25 43.6277zm-3 0a1 1 0 1 1 1 1A1.001 1.001 0 0 1 26.25 43.6277z"/><polygon fill="#0bceb2" points="10.888 68.261 12.375 66.306 11.436 65.774 10.481 67.964 10.45 67.964 9.48 65.789 8.525 66.337 9.996 68.246 9.996 68.277 7.695 67.98 7.695 69.044 10.011 68.747 10.011 68.778 8.525 70.686 9.416 71.25 10.434 69.044 10.465 69.044 11.404 71.234 12.39 70.671 10.888 68.793 10.888 68.762 13.25 69.044 13.25 67.98 10.888 68.292 10.888 68.261"/><polygon fill="#0bceb2" points="47.734 7.903 46.878 9.002 47.392 9.327 47.978 8.056 47.996 8.056 48.536 9.318 49.104 8.993 48.239 7.912 48.239 7.894 49.599 8.056 49.599 7.444 48.239 7.624 48.239 7.606 49.095 6.48 48.555 6.173 48.005 7.434 47.987 7.434 47.429 6.182 46.878 6.497 47.726 7.597 47.726 7.615 46.401 7.444 46.401 8.056 47.734 7.885 47.734 7.903"/><polygon fill="#0bceb2" points="162.029 8.271 162.029 7.228 159.712 7.535 159.712 7.504 161.17 5.586 160.249 5.064 159.313 7.212 159.282 7.212 158.331 5.079 157.394 5.617 158.837 7.489 158.837 7.52 156.581 7.228 156.581 8.271 158.852 7.98 158.852 8.011 157.394 9.883 158.269 10.436 159.267 8.271 159.297 8.271 160.218 10.42 161.185 9.868 159.712 8.026 159.712 7.995 162.029 8.271"/><polygon fill="#0bceb2" points="116.748 18.836 118.006 17.181 117.211 16.731 116.404 18.584 116.377 18.584 115.557 16.744 114.748 17.208 115.993 18.823 115.993 18.849 114.047 18.598 114.047 19.498 116.006 19.246 116.006 19.273 114.748 20.888 115.503 21.365 116.364 19.498 116.39 19.498 117.185 21.351 118.019 20.875 116.748 19.286 116.748 19.259 118.746 19.498 118.746 18.598 116.748 18.862 116.748 18.836"/><circle cx="2" cy="149.25" r="2" fill="#2d4356"/><path fill="#2d4356" d="M11 147.25H8a2 2 0 0 0 0 4h3a2 2 0 0 0 0-4zM160 147.25h-3a2 2 0 0 0 0 4h3a2 2 0 0 0 0-4z"/><circle cx="166" cy="149.25" r="2" fill="#2d4356"/><path fill="#0bceb2" d="M118.15387 155.25h-8.30774a2.00641 2.00641 0 0 0 0 4h8.30774a2.00641 2.00641 0 0 0 0-4zM58.15387 155.25H49.84613a2.00641 2.00641 0 0 0 0 4h8.30774a2.00641 2.00641 0 0 0 0-4zM104 155.25H64a2 2 0 0 0 0 4H79.94v2H72a2 2 0 0 0 0 4H97a2 2 0 0 0 0-4H88.06v-2H104a2 2 0 0 0 0-4z"/><circle cx="2" cy="149.25" r="2" fill="#2d4356"/><path fill="#2d4356" d="M11 147.25H8a2 2 0 0 0 0 4h3a2 2 0 0 0 0-4zM160 147.25h-3a2 2 0 0 0 0 4h3a2 2 0 0 0 0-4z"/><circle cx="166" cy="149.25" r="2" fill="#2d4356"/><path fill="#0bceb2" d="M118.15387 155.25h-8.30774a2.00641 2.00641 0 0 0 0 4h8.30774a2.00641 2.00641 0 0 0 0-4zM58.15387 155.25H49.84613a2.00641 2.00641 0 0 0 0 4h8.30774a2.00641 2.00641 0 0 0 0-4zM104 155.25H64a2 2 0 0 0 0 4H79.94v2H72a2 2 0 0 0 0 4H97a2 2 0 0 0 0-4H88.06v-2H104a2 2 0 0 0 0-4z"/><circle cx="2" cy="149.25" r="2" fill="#2d4356"/><path fill="#2d4356" d="M11 147.25H8a2 2 0 0 0 0 4h3a2 2 0 0 0 0-4zM160 147.25h-3a2 2 0 0 0 0 4h3a2 2 0 0 0 0-4z"/><circle cx="166" cy="149.25" r="2" fill="#2d4356"/><path fill="#0bceb2" d="M118.15387 155.25h-8.30774a2.00641 2.00641 0 0 0 0 4h8.30774a2.00641 2.00641 0 0 0 0-4zM58.15387 155.25H49.84613a2.00641 2.00641 0 0 0 0 4h8.30774a2.00641 2.00641 0 0 0 0-4zM104 155.25H64a2 2 0 0 0 0 4H79.94v2H72a2 2 0 0 0 0 4H97a2 2 0 0 0 0-4H88.06v-2H104a2 2 0 0 0 0-4z"/><circle cx="2" cy="149.25" r="2" fill="#2d4356"/><path fill="#2d4356" d="M11 147.25H8a2 2 0 0 0 0 4h3a2 2 0 0 0 0-4zM160 147.25h-3a2 2 0 0 0 0 4h3a2 2 0 0 0 0-4z"/><circle cx="166" cy="149.25" r="2" fill="#2d4356"/><path fill="#0bceb2" d="M118.15387 155.25h-8.30774a2.00641 2.00641 0 0 0 0 4h8.30774a2.00641 2.00641 0 0 0 0-4zM58.15387 155.25H49.84613a2.00641 2.00641 0 0 0 0 4h8.30774a2.00641 2.00641 0 0 0 0-4zM104 155.25H64a2 2 0 0 0 0 4H79.94v2H72a2 2 0 0 0 0 4H97a2 2 0 0 0 0-4H88.06v-2H104a2 2 0 0 0 0-4z"/><path fill="#2d4356" d="M82,139.25H70a2,2,0,0,0,0,4H82a2,2,0,0,0,0-4Z"/><path fill="#2d4356" d="M150.72,147.25H113.65a6.04977,6.04977,0,0,0,.35-2v-9h-4v9a2.00591,2.00591,0,0,1-2,2H44a2.00591,2.00591,0,0,1-2-2v-116a2.00583,2.00583,0,0,1,2-2H60.44l1.24,4.97a4.00046,4.00046,0,0,0,3.88,3.03H86.44a4.00046,4.00046,0,0,0,3.88-3.03l1.24-4.97H108a2.00583,2.00583,0,0,1,2,2V75.38a6.83269,6.83269,0,0,1,4,.22V29.25a6.00472,6.00472,0,0,0-6-6H44a6.00472,6.00472,0,0,0-6,6v116a6.04977,6.04977,0,0,0,.35,2H17.28a2.0172,2.0172,0,1,0,0,4H150.72a2.0172,2.0172,0,1,0,0-4Zm-63.28-120-1,4H65.56l-1-4Z"/><path fill="#0bceb2" d="M122.95,75.29h-.92a7.03953,7.03953,0,0,0-5.04,2.12988A7.131,7.131,0,0,0,114,75.6a5.59827,5.59827,0,0,0-4-.22,7.68041,7.68041,0,0,0-4.03,2.03992A7.03928,7.03928,0,0,0,100.93,75.29h-.92a6.9367,6.9367,0,0,0-3.05.7V72.73a13.99132,13.99132,0,1,0-15.01.59009v28.83984l-11.27-11.47a7.0617,7.0617,0,0,0-9.96,0l-.65.65a7.01363,7.01363,0,0,0-.05,9.9l28.24,31.75a9.35984,9.35984,0,0,0,7.1,3.26h21.63A13.0104,13.0104,0,0,0,130,123.27V82.33A7.05241,7.05241,0,0,0,122.95,75.29ZM79,61.25a10,10,0,0,1,20,0,9.87352,9.87352,0,0,1-2.04,6V61.28a7.044,7.044,0,0,0-7.05-7.03H89a7.0439,7.0439,0,0,0-7.05,7.03v7.04A9.94492,9.94492,0,0,1,79,61.25Zm47,62.02a9.005,9.005,0,0,1-9.01,8.98H95.36a5.36557,5.36557,0,0,1-4.08-1.89L62.97,98.54a.64631.64631,0,0,0-.08-.09009A3.01091,3.01091,0,0,1,62,96.31006,3.44692,3.44692,0,0,1,63.23,93.83a3.60389,3.60389,0,0,1,2.47-1.2,3.00313,3.00313,0,0,1,2.14.88L82.52,108.45A2.00659,2.00659,0,0,0,85.95,107.04V61.28A3.04511,3.04511,0,0,1,89,58.25h.91a3.04512,3.04512,0,0,1,3.05,3.03l-.04,44.85a2,2,0,0,0,4,0s.04-23.66.04-23.8A3.04709,3.04709,0,0,1,100.01,79.29h.92a3.03878,3.03878,0,0,1,3.04,3.01c-.00995.08-.02,23.83-.02,23.83a2,2,0,1,0,4,0s.02-23.71008.02-23.8A3.04714,3.04714,0,0,1,111.02,79.29h.92A3.04709,3.04709,0,0,1,114.99,82.33v.04c0,.05994-.02,23.76-.02,23.76a2,2,0,0,0,4,0V82.51c0-.06006.02-.12.02-.18005A3.03854,3.03854,0,0,1,122.03,79.29h.92A3.04709,3.04709,0,0,1,126,82.33Z"/></svg>